<svg xmlns="http://www.w3.org/2000/svg" viewBox="0 0 64 64" width="64" height="64" shape-rendering="crispEdges"><rect x="24" y="22" width="1.05" height="1.05" fill="#6b3a3a" /><rect x="25" y="22" width="1.05" height="1.05" fill="#6b3a3a" /><rect x="23" y="23" width="1.05" height="1.05" fill="#6b3a3a" /><rect x="24" y="23" width="1.05" height="1.05" fill="#c48468" /><rect x="25" y="23" width="1.05" height="1.05" fill="#c48468" /><rect x="26" y="23" width="1.05" height="1.05" fill="#6b3a3a" /><rect x="23" y="24" width="1.05" height="1.05" fill="#6b3a3a" /><rect x="24" y="24" width="1.05" height="1.05" fill="#c48468" /><rect x="25" y="24" width="1.05" height="1.05" fill="#c48468" /><rect x="26" y="24" width="1.05" height="1.05" fill="#6b3a3a" /><rect x="23" y="25" width="1.05" height="1.05" fill="#6b3a3a" /><rect x="24" y="25" width="1.05" height="1.05" fill="#c48468" /><rect x="25" y="25" width="1.05" height="1.05" fill="#c48468" /><rect x="26" y="25" width="1.05" height="1.05" fill="#6b3a3a" /><rect x="23" y="26" width="1.05" height="1.05" fill="#6b3a3a" /><rect x="24" y="26" width="1.05" height="1.05" fill="#c48468" /><rect x="25" y="26" width="1.05" height="1.05" fill="#a0614e" /><rect x="26" y="26" width="1.05" height="1.05" fill="#6b3a3a" /><rect x="23" y="27" width="1.05" height="1.05" fill="#6b3a3a" /><rect x="24" y="27" width="1.05" height="1.05" fill="#c48468" /><rect x="25" y="27" width="1.05" height="1.05" fill="#a0614e" /><rect x="26" y="27" width="1.05" height="1.05" fill="#6b3a3a" /><rect x="23" y="28" width="1.05" height="1.05" fill="#6b3a3a" /><rect x="24" y="28" width="1.05" height="1.05" fill="#c48468" /><rect x="25" y="28" width="1.05" height="1.05" fill="#a0614e" /><rect x="26" y="28" width="1.05" height="1.05" fill="#6b3a3a" /><rect x="24" y="29" width="1.05" height="1.05" fill="#6b3a3a" /><rect x="25" y="29" width="1.05" height="1.05" fill="#6b3a3a" /></svg>