<svg xmlns="http://www.w3.org/2000/svg" viewBox="0 0 64 64" width="64" height="64" shape-rendering="crispEdges"><rect x="27" y="44" width="1.05" height="1.05" fill="#6b3a3a" /><rect x="28" y="44" width="1.05" height="1.05" fill="#6b3a3a" /><rect x="26" y="45" width="1.05" height="1.05" fill="#6b3a3a" /><rect x="27" y="45" width="1.05" height="1.05" fill="#c48468" /><rect x="28" y="45" width="1.05" height="1.05" fill="#a0614e" /><rect x="29" y="45" width="1.05" height="1.05" fill="#6b3a3a" /><rect x="26" y="46" width="1.05" height="1.05" fill="#6b3a3a" /><rect x="27" y="46" width="1.05" height="1.05" fill="#c48468" /><rect x="28" y="46" width="1.05" height="1.05" fill="#a0614e" /><rect x="29" y="46" width="1.05" height="1.05" fill="#6b3a3a" /><rect x="26" y="47" width="1.05" height="1.05" fill="#6b3a3a" /><rect x="27" y="47" width="1.05" height="1.05" fill="#c48468" /><rect x="28" y="47" width="1.05" height="1.05" fill="#a0614e" /><rect x="29" y="47" width="1.05" height="1.05" fill="#6b3a3a" /><rect x="26" y="48" width="1.05" height="1.05" fill="#6b3a3a" /><rect x="27" y="48" width="1.05" height="1.05" fill="#c48468" /><rect x="28" y="48" width="1.05" height="1.05" fill="#a0614e" /><rect x="29" y="48" width="1.05" height="1.05" fill="#6b3a3a" /><rect x="26" y="49" width="1.05" height="1.05" fill="#6b3a3a" /><rect x="27" y="49" width="1.05" height="1.05" fill="#c48468" /><rect x="28" y="49" width="1.05" height="1.05" fill="#a0614e" /><rect x="29" y="49" width="1.05" height="1.05" fill="#6b3a3a" /><rect x="26" y="50" width="1.05" height="1.05" fill="#6b3a3a" /><rect x="27" y="50" width="1.05" height="1.05" fill="#c48468" /><rect x="28" y="50" width="1.05" height="1.05" fill="#a0614e" /><rect x="29" y="50" width="1.05" height="1.05" fill="#6b3a3a" /><rect x="25" y="51" width="1.05" height="1.05" fill="#6b3a3a" /><rect x="26" y="51" width="1.05" height="1.05" fill="#c48468" /><rect x="27" y="51" width="1.05" height="1.05" fill="#a0614e" /><rect x="28" y="51" width="1.05" height="1.05" fill="#6b3a3a" /><rect x="29" y="51" width="1.05" height="1.05" fill="#6b3a3a" /><rect x="25" y="52" width="1.05" height="1.05" fill="#6b3a3a" /><rect x="26" y="52" width="1.05" height="1.05" fill="#c48468" /><rect x="27" y="52" width="1.05" height="1.05" fill="#a0614e" /><rect x="28" y="52" width="1.05" height="1.05" fill="#6b3a3a" /><rect x="29" y="52" width="1.05" height="1.05" fill="#6b3a3a" /><rect x="25" y="53" width="1.05" height="1.05" fill="#6b3a3a" /><rect x="26" y="53" width="1.05" height="1.05" fill="#6b3a3a" /><rect x="27" y="53" width="1.05" height="1.05" fill="#6b3a3a" /><rect x="28" y="53" width="1.05" height="1.05" fill="#6b3a3a" /><rect x="29" y="53" width="1.05" height="1.05" fill="#6b3a3a" /></svg>