<svg xmlns="http://www.w3.org/2000/svg" viewBox="0 0 64 64" width="64" height="64" shape-rendering="crispEdges"><rect x="33" y="36" width="1.05" height="1.05" fill="#6b3a3a" /><rect x="34" y="36" width="1.05" height="1.05" fill="#6b3a3a" /><rect x="35" y="36" width="1.05" height="1.05" fill="#6b3a3a" /><rect x="32" y="37" width="1.05" height="1.05" fill="#6b3a3a" /><rect x="33" y="37" width="1.05" height="1.05" fill="#e0aa82" /><rect x="34" y="37" width="1.05" height="1.05" fill="#e0aa82" /><rect x="35" y="37" width="1.05" height="1.05" fill="#f0c8a0" /><rect x="36" y="37" width="1.05" height="1.05" fill="#6b3a3a" /><rect x="32" y="38" width="1.05" height="1.05" fill="#6b3a3a" /><rect x="33" y="38" width="1.05" height="1.05" fill="#e0aa82" /><rect x="34" y="38" width="1.05" height="1.05" fill="#e0aa82" /><rect x="35" y="38" width="1.05" height="1.05" fill="#f0c8a0" /><rect x="36" y="38" width="1.05" height="1.05" fill="#6b3a3a" /><rect x="32" y="39" width="1.05" height="1.05" fill="#6b3a3a" /><rect x="33" y="39" width="1.05" height="1.05" fill="#e0aa82" /><rect x="34" y="39" width="1.05" height="1.05" fill="#e0aa82" /><rect x="35" y="39" width="1.05" height="1.05" fill="#f0c8a0" /><rect x="36" y="39" width="1.05" height="1.05" fill="#6b3a3a" /><rect x="32" y="40" width="1.05" height="1.05" fill="#6b3a3a" /><rect x="33" y="40" width="1.05" height="1.05" fill="#e0aa82" /><rect x="34" y="40" width="1.05" height="1.05" fill="#e0aa82" /><rect x="35" y="40" width="1.05" height="1.05" fill="#f0c8a0" /><rect x="36" y="40" width="1.05" height="1.05" fill="#6b3a3a" /><rect x="33" y="41" width="1.05" height="1.05" fill="#6b3a3a" /><rect x="34" y="41" width="1.05" height="1.05" fill="#e0aa82" /><rect x="35" y="41" width="1.05" height="1.05" fill="#f0c8a0" /><rect x="36" y="41" width="1.05" height="1.05" fill="#6b3a3a" /><rect x="33" y="42" width="1.05" height="1.05" fill="#6b3a3a" /><rect x="34" y="42" width="1.05" height="1.05" fill="#e0aa82" /><rect x="35" y="42" width="1.05" height="1.05" fill="#f0c8a0" /><rect x="36" y="42" width="1.05" height="1.05" fill="#6b3a3a" /><rect x="33" y="43" width="1.05" height="1.05" fill="#6b3a3a" /><rect x="34" y="43" width="1.05" height="1.05" fill="#e0aa82" /><rect x="35" y="43" width="1.05" height="1.05" fill="#f0c8a0" /><rect x="36" y="43" width="1.05" height="1.05" fill="#6b3a3a" /><rect x="34" y="44" width="1.05" height="1.05" fill="#6b3a3a" /><rect x="35" y="44" width="1.05" height="1.05" fill="#6b3a3a" /></svg>