<svg xmlns="http://www.w3.org/2000/svg" viewBox="0 0 64 64" width="64" height="64" shape-rendering="crispEdges"><rect x="38" y="22" width="1.05" height="1.05" fill="#6b3a3a" /><rect x="39" y="22" width="1.05" height="1.05" fill="#6b3a3a" /><rect x="37" y="23" width="1.05" height="1.05" fill="#6b3a3a" /><rect x="38" y="23" width="1.05" height="1.05" fill="#e0aa82" /><rect x="39" y="23" width="1.05" height="1.05" fill="#f0c8a0" /><rect x="40" y="23" width="1.05" height="1.05" fill="#6b3a3a" /><rect x="37" y="24" width="1.05" height="1.05" fill="#6b3a3a" /><rect x="38" y="24" width="1.05" height="1.05" fill="#e0aa82" /><rect x="39" y="24" width="1.05" height="1.05" fill="#f0c8a0" /><rect x="40" y="24" width="1.05" height="1.05" fill="#6b3a3a" /><rect x="37" y="25" width="1.05" height="1.05" fill="#6b3a3a" /><rect x="38" y="25" width="1.05" height="1.05" fill="#e0aa82" /><rect x="39" y="25" width="1.05" height="1.05" fill="#f0c8a0" /><rect x="40" y="25" width="1.05" height="1.05" fill="#6b3a3a" /><rect x="37" y="26" width="1.05" height="1.05" fill="#6b3a3a" /><rect x="38" y="26" width="1.05" height="1.05" fill="#e0aa82" /><rect x="39" y="26" width="1.05" height="1.05" fill="#f0c8a0" /><rect x="40" y="26" width="1.05" height="1.05" fill="#6b3a3a" /><rect x="36" y="27" width="1.05" height="1.05" fill="#6b3a3a" /><rect x="37" y="27" width="1.05" height="1.05" fill="#e0aa82" /><rect x="38" y="27" width="1.05" height="1.05" fill="#f0c8a0" /><rect x="39" y="27" width="1.05" height="1.05" fill="#6b3a3a" /><rect x="36" y="28" width="1.05" height="1.05" fill="#6b3a3a" /><rect x="37" y="28" width="1.05" height="1.05" fill="#e0aa82" /><rect x="38" y="28" width="1.05" height="1.05" fill="#f0c8a0" /><rect x="39" y="28" width="1.05" height="1.05" fill="#6b3a3a" /><rect x="37" y="29" width="1.05" height="1.05" fill="#6b3a3a" /><rect x="38" y="29" width="1.05" height="1.05" fill="#6b3a3a" /></svg>