<svg xmlns="http://www.w3.org/2000/svg" viewBox="0 0 64 64" width="64" height="64" shape-rendering="crispEdges"><rect x="34" y="44" width="1.05" height="1.05" fill="#6b3a3a" /><rect x="35" y="44" width="1.05" height="1.05" fill="#6b3a3a" /><rect x="33" y="45" width="1.05" height="1.05" fill="#6b3a3a" /><rect x="34" y="45" width="1.05" height="1.05" fill="#e0aa82" /><rect x="35" y="45" width="1.05" height="1.05" fill="#f0c8a0" /><rect x="36" y="45" width="1.05" height="1.05" fill="#6b3a3a" /><rect x="33" y="46" width="1.05" height="1.05" fill="#6b3a3a" /><rect x="34" y="46" width="1.05" height="1.05" fill="#e0aa82" /><rect x="35" y="46" width="1.05" height="1.05" fill="#f0c8a0" /><rect x="36" y="46" width="1.05" height="1.05" fill="#6b3a3a" /><rect x="33" y="47" width="1.05" height="1.05" fill="#6b3a3a" /><rect x="34" y="47" width="1.05" height="1.05" fill="#e0aa82" /><rect x="35" y="47" width="1.05" height="1.05" fill="#f0c8a0" /><rect x="36" y="47" width="1.05" height="1.05" fill="#6b3a3a" /><rect x="33" y="48" width="1.05" height="1.05" fill="#6b3a3a" /><rect x="34" y="48" width="1.05" height="1.05" fill="#e0aa82" /><rect x="35" y="48" width="1.05" height="1.05" fill="#f0c8a0" /><rect x="36" y="48" width="1.05" height="1.05" fill="#6b3a3a" /><rect x="33" y="49" width="1.05" height="1.05" fill="#6b3a3a" /><rect x="34" y="49" width="1.05" height="1.05" fill="#e0aa82" /><rect x="35" y="49" width="1.05" height="1.05" fill="#f0c8a0" /><rect x="36" y="49" width="1.05" height="1.05" fill="#6b3a3a" /><rect x="33" y="50" width="1.05" height="1.05" fill="#6b3a3a" /><rect x="34" y="50" width="1.05" height="1.05" fill="#e0aa82" /><rect x="35" y="50" width="1.05" height="1.05" fill="#f0c8a0" /><rect x="36" y="50" width="1.05" height="1.05" fill="#6b3a3a" /><rect x="37" y="50" width="1.05" height="1.05" fill="#6b3a3a" /><rect x="33" y="51" width="1.05" height="1.05" fill="#6b3a3a" /><rect x="34" y="51" width="1.05" height="1.05" fill="#e0aa82" /><rect x="35" y="51" width="1.05" height="1.05" fill="#f0c8a0" /><rect x="36" y="51" width="1.05" height="1.05" fill="#6b3a3a" /><rect x="37" y="51" width="1.05" height="1.05" fill="#6b3a3a" /><rect x="33" y="52" width="1.05" height="1.05" fill="#6b3a3a" /><rect x="34" y="52" width="1.05" height="1.05" fill="#e0aa82" /><rect x="35" y="52" width="1.05" height="1.05" fill="#f0c8a0" /><rect x="36" y="52" width="1.05" height="1.05" fill="#6b3a3a" /><rect x="37" y="52" width="1.05" height="1.05" fill="#6b3a3a" /><rect x="33" y="53" width="1.05" height="1.05" fill="#6b3a3a" /><rect x="34" y="53" width="1.05" height="1.05" fill="#6b3a3a" /><rect x="35" y="53" width="1.05" height="1.05" fill="#6b3a3a" /><rect x="36" y="53" width="1.05" height="1.05" fill="#6b3a3a" /><rect x="37" y="53" width="1.05" height="1.05" fill="#6b3a3a" /></svg>