<svg xmlns="http://www.w3.org/2000/svg" viewBox="0 0 64 64" width="64" height="64" shape-rendering="crispEdges"><rect x="28" y="36" width="1.05" height="1.05" fill="#6b3a3a" /><rect x="29" y="36" width="1.05" height="1.05" fill="#6b3a3a" /><rect x="27" y="37" width="1.05" height="1.05" fill="#6b3a3a" /><rect x="28" y="37" width="1.05" height="1.05" fill="#c48468" /><rect x="29" y="37" width="1.05" height="1.05" fill="#a0614e" /><rect x="30" y="37" width="1.05" height="1.05" fill="#6b3a3a" /><rect x="27" y="38" width="1.05" height="1.05" fill="#6b3a3a" /><rect x="28" y="38" width="1.05" height="1.05" fill="#c48468" /><rect x="29" y="38" width="1.05" height="1.05" fill="#a0614e" /><rect x="30" y="38" width="1.05" height="1.05" fill="#6b3a3a" /><rect x="27" y="39" width="1.05" height="1.05" fill="#6b3a3a" /><rect x="28" y="39" width="1.05" height="1.05" fill="#c48468" /><rect x="29" y="39" width="1.05" height="1.05" fill="#a0614e" /><rect x="30" y="39" width="1.05" height="1.05" fill="#6b3a3a" /><rect x="27" y="40" width="1.05" height="1.05" fill="#6b3a3a" /><rect x="28" y="40" width="1.05" height="1.05" fill="#c48468" /><rect x="29" y="40" width="1.05" height="1.05" fill="#a0614e" /><rect x="30" y="40" width="1.05" height="1.05" fill="#6b3a3a" /><rect x="27" y="41" width="1.05" height="1.05" fill="#6b3a3a" /><rect x="28" y="41" width="1.05" height="1.05" fill="#c48468" /><rect x="29" y="41" width="1.05" height="1.05" fill="#a0614e" /><rect x="30" y="41" width="1.05" height="1.05" fill="#6b3a3a" /><rect x="27" y="42" width="1.05" height="1.05" fill="#6b3a3a" /><rect x="28" y="42" width="1.05" height="1.05" fill="#c48468" /><rect x="29" y="42" width="1.05" height="1.05" fill="#a0614e" /><rect x="30" y="42" width="1.05" height="1.05" fill="#6b3a3a" /><rect x="27" y="43" width="1.05" height="1.05" fill="#6b3a3a" /><rect x="28" y="43" width="1.05" height="1.05" fill="#c48468" /><rect x="29" y="43" width="1.05" height="1.05" fill="#a0614e" /><rect x="30" y="43" width="1.05" height="1.05" fill="#6b3a3a" /><rect x="28" y="44" width="1.05" height="1.05" fill="#6b3a3a" /><rect x="29" y="44" width="1.05" height="1.05" fill="#6b3a3a" /></svg>