<svg xmlns="http://www.w3.org/2000/svg" viewBox="0 0 64 64" width="64" height="64" shape-rendering="crispEdges"><rect x="38" y="30" width="1.05" height="1.05" fill="#6b3a3a" /><rect x="39" y="30" width="1.05" height="1.05" fill="#6b3a3a" /><rect x="37" y="31" width="1.05" height="1.05" fill="#6b3a3a" /><rect x="38" y="31" width="1.05" height="1.05" fill="#e0aa82" /><rect x="39" y="31" width="1.05" height="1.05" fill="#f0c8a0" /><rect x="40" y="31" width="1.05" height="1.05" fill="#6b3a3a" /><rect x="37" y="32" width="1.05" height="1.05" fill="#6b3a3a" /><rect x="38" y="32" width="1.05" height="1.05" fill="#e0aa82" /><rect x="39" y="32" width="1.05" height="1.05" fill="#f0c8a0" /><rect x="40" y="32" width="1.05" height="1.05" fill="#6b3a3a" /><rect x="37" y="33" width="1.05" height="1.05" fill="#6b3a3a" /><rect x="38" y="33" width="1.05" height="1.05" fill="#e0aa82" /><rect x="39" y="33" width="1.05" height="1.05" fill="#f0c8a0" /><rect x="40" y="33" width="1.05" height="1.05" fill="#6b3a3a" /><rect x="37" y="34" width="1.05" height="1.05" fill="#6b3a3a" /><rect x="38" y="34" width="1.05" height="1.05" fill="#e0aa82" /><rect x="39" y="34" width="1.05" height="1.05" fill="#f0c8a0" /><rect x="40" y="34" width="1.05" height="1.05" fill="#6b3a3a" /><rect x="37" y="35" width="1.05" height="1.05" fill="#6b3a3a" /><rect x="38" y="35" width="1.05" height="1.05" fill="#e0aa82" /><rect x="39" y="35" width="1.05" height="1.05" fill="#f0c8a0" /><rect x="40" y="35" width="1.05" height="1.05" fill="#6b3a3a" /><rect x="36" y="36" width="1.05" height="1.05" fill="#6b3a3a" /><rect x="37" y="36" width="1.05" height="1.05" fill="#e0aa82" /><rect x="38" y="36" width="1.05" height="1.05" fill="#f0c8a0" /><rect x="39" y="36" width="1.05" height="1.05" fill="#6b3a3a" /><rect x="40" y="36" width="1.05" height="1.05" fill="#6b3a3a" /><rect x="36" y="37" width="1.05" height="1.05" fill="#6b3a3a" /><rect x="37" y="37" width="1.05" height="1.05" fill="#6b3a3a" /><rect x="38" y="37" width="1.05" height="1.05" fill="#6b3a3a" /><rect x="39" y="37" width="1.05" height="1.05" fill="#6b3a3a" /><rect x="40" y="37" width="1.05" height="1.05" fill="#6b3a3a" /></svg>