<svg xmlns="http://www.w3.org/2000/svg" viewBox="0 0 64 64" width="64" height="64" shape-rendering="crispEdges"><rect x="23" y="30" width="1.05" height="1.05" fill="#6b3a3a" /><rect x="24" y="30" width="1.05" height="1.05" fill="#6b3a3a" /><rect x="22" y="31" width="1.05" height="1.05" fill="#6b3a3a" /><rect x="23" y="31" width="1.05" height="1.05" fill="#c48468" /><rect x="24" y="31" width="1.05" height="1.05" fill="#a0614e" /><rect x="25" y="31" width="1.05" height="1.05" fill="#6b3a3a" /><rect x="22" y="32" width="1.05" height="1.05" fill="#6b3a3a" /><rect x="23" y="32" width="1.05" height="1.05" fill="#c48468" /><rect x="24" y="32" width="1.05" height="1.05" fill="#a0614e" /><rect x="25" y="32" width="1.05" height="1.05" fill="#6b3a3a" /><rect x="22" y="33" width="1.05" height="1.05" fill="#6b3a3a" /><rect x="23" y="33" width="1.05" height="1.05" fill="#c48468" /><rect x="24" y="33" width="1.05" height="1.05" fill="#a0614e" /><rect x="25" y="33" width="1.05" height="1.05" fill="#6b3a3a" /><rect x="22" y="34" width="1.05" height="1.05" fill="#6b3a3a" /><rect x="23" y="34" width="1.05" height="1.05" fill="#c48468" /><rect x="24" y="34" width="1.05" height="1.05" fill="#a0614e" /><rect x="25" y="34" width="1.05" height="1.05" fill="#6b3a3a" /><rect x="22" y="35" width="1.05" height="1.05" fill="#6b3a3a" /><rect x="23" y="35" width="1.05" height="1.05" fill="#c48468" /><rect x="24" y="35" width="1.05" height="1.05" fill="#a0614e" /><rect x="25" y="35" width="1.05" height="1.05" fill="#6b3a3a" /><rect x="26" y="35" width="1.05" height="1.05" fill="#6b3a3a" /><rect x="23" y="36" width="1.05" height="1.05" fill="#6b3a3a" /><rect x="24" y="36" width="1.05" height="1.05" fill="#6b3a3a" /><rect x="25" y="36" width="1.05" height="1.05" fill="#6b3a3a" /><rect x="26" y="36" width="1.05" height="1.05" fill="#6b3a3a" /></svg>