<svg xmlns="http://www.w3.org/2000/svg" viewBox="0 0 64 64" width="64" height="64" shape-rendering="crispEdges"><rect x="29" y="22" width="1.05" height="1.05" fill="#6b3a3a" /><rect x="30" y="22" width="1.05" height="1.05" fill="#6b3a3a" /><rect x="31" y="22" width="1.05" height="1.05" fill="#6b3a3a" /><rect x="32" y="22" width="1.05" height="1.05" fill="#6b3a3a" /><rect x="33" y="22" width="1.05" height="1.05" fill="#6b3a3a" /><rect x="28" y="23" width="1.05" height="1.05" fill="#6b3a3a" /><rect x="29" y="23" width="1.05" height="1.05" fill="#f0c8a0" /><rect x="30" y="23" width="1.05" height="1.05" fill="#e0aa82" /><rect x="31" y="23" width="1.05" height="1.05" fill="#e0aa82" /><rect x="32" y="23" width="1.05" height="1.05" fill="#e0aa82" /><rect x="33" y="23" width="1.05" height="1.05" fill="#f0c8a0" /><rect x="34" y="23" width="1.05" height="1.05" fill="#6b3a3a" /><rect x="27" y="24" width="1.05" height="1.05" fill="#6b3a3a" /><rect x="28" y="24" width="1.05" height="1.05" fill="#f0c8a0" /><rect x="29" y="24" width="1.05" height="1.05" fill="#e0aa82" /><rect x="30" y="24" width="1.05" height="1.05" fill="#e0aa82" /><rect x="31" y="24" width="1.05" height="1.05" fill="#e0aa82" /><rect x="32" y="24" width="1.05" height="1.05" fill="#e0aa82" /><rect x="33" y="24" width="1.05" height="1.05" fill="#f0c8a0" /><rect x="34" y="24" width="1.05" height="1.05" fill="#6b3a3a" /><rect x="26" y="25" width="1.05" height="1.05" fill="#6b3a3a" /><rect x="27" y="25" width="1.05" height="1.05" fill="#f0c8a0" /><rect x="28" y="25" width="1.05" height="1.05" fill="#e0aa82" /><rect x="29" y="25" width="1.05" height="1.05" fill="#e0aa82" /><rect x="30" y="25" width="1.05" height="1.05" fill="#e0aa82" /><rect x="31" y="25" width="1.05" height="1.05" fill="#e0aa82" /><rect x="32" y="25" width="1.05" height="1.05" fill="#e0aa82" /><rect x="33" y="25" width="1.05" height="1.05" fill="#f0c8a0" /><rect x="34" y="25" width="1.05" height="1.05" fill="#6b3a3a" /><rect x="26" y="26" width="1.05" height="1.05" fill="#6b3a3a" /><rect x="27" y="26" width="1.05" height="1.05" fill="#f0c8a0" /><rect x="28" y="26" width="1.05" height="1.05" fill="#e0aa82" /><rect x="29" y="26" width="1.05" height="1.05" fill="#e0aa82" /><rect x="30" y="26" width="1.05" height="1.05" fill="#e0aa82" /><rect x="31" y="26" width="1.05" height="1.05" fill="#e0aa82" /><rect x="32" y="26" width="1.05" height="1.05" fill="#e0aa82" /><rect x="33" y="26" width="1.05" height="1.05" fill="#f0c8a0" /><rect x="34" y="26" width="1.05" height="1.05" fill="#6b3a3a" /><rect x="35" y="26" width="1.05" height="1.05" fill="#6b3a3a" /><rect x="26" y="27" width="1.05" height="1.05" fill="#6b3a3a" /><rect x="27" y="27" width="1.05" height="1.05" fill="#f0c8a0" /><rect x="28" y="27" width="1.05" height="1.05" fill="#e0aa82" /><rect x="29" y="27" width="1.05" height="1.05" fill="#e0aa82" /><rect x="30" y="27" width="1.05" height="1.05" fill="#e0aa82" /><rect x="31" y="27" width="1.05" height="1.05" fill="#e0aa82" /><rect x="32" y="27" width="1.05" height="1.05" fill="#e0aa82" /><rect x="33" y="27" width="1.05" height="1.05" fill="#c48468" /><rect x="34" y="27" width="1.05" height="1.05" fill="#c48468" /><rect x="35" y="27" width="1.05" height="1.05" fill="#6b3a3a" /><rect x="36" y="27" width="1.05" height="1.05" fill="#6b3a3a" /><rect x="26" y="28" width="1.05" height="1.05" fill="#6b3a3a" /><rect x="27" y="28" width="1.05" height="1.05" fill="#f0c8a0" /><rect x="28" y="28" width="1.05" height="1.05" fill="#e0aa82" /><rect x="29" y="28" width="1.05" height="1.05" fill="#e0aa82" /><rect x="30" y="28" width="1.05" height="1.05" fill="#e0aa82" /><rect x="31" y="28" width="1.05" height="1.05" fill="#e0aa82" /><rect x="32" y="28" width="1.05" height="1.05" fill="#e0aa82" /><rect x="33" y="28" width="1.05" height="1.05" fill="#c48468" /><rect x="34" y="28" width="1.05" height="1.05" fill="#c48468" /><rect x="36" y="28" width="1.05" height="1.05" fill="#6b3a3a" /><rect x="27" y="29" width="1.05" height="1.05" fill="#6b3a3a" /><rect x="28" y="29" width="1.05" height="1.05" fill="#e0aa82" /><rect x="29" y="29" width="1.05" height="1.05" fill="#e0aa82" /><rect x="30" y="29" width="1.05" height="1.05" fill="#e0aa82" /><rect x="31" y="29" width="1.05" height="1.05" fill="#e0aa82" /><rect x="32" y="29" width="1.05" height="1.05" fill="#e0aa82" /><rect x="33" y="29" width="1.05" height="1.05" fill="#c48468" /><rect x="34" y="29" width="1.05" height="1.05" fill="#6b3a3a" /><rect x="27" y="30" width="1.05" height="1.05" fill="#6b3a3a" /><rect x="28" y="30" width="1.05" height="1.05" fill="#c48468" /><rect x="29" y="30" width="1.05" height="1.05" fill="#e0aa82" /><rect x="30" y="30" width="1.05" height="1.05" fill="#e0aa82" /><rect x="31" y="30" width="1.05" height="1.05" fill="#e0aa82" /><rect x="32" y="30" width="1.05" height="1.05" fill="#e0aa82" /><rect x="33" y="30" width="1.05" height="1.05" fill="#c48468" /><rect x="34" y="30" width="1.05" height="1.05" fill="#6b3a3a" /><rect x="28" y="31" width="1.05" height="1.05" fill="#6b3a3a" /><rect x="29" y="31" width="1.05" height="1.05" fill="#c48468" /><rect x="30" y="31" width="1.05" height="1.05" fill="#e0aa82" /><rect x="31" y="31" width="1.05" height="1.05" fill="#e0aa82" /><rect x="32" y="31" width="1.05" height="1.05" fill="#e0aa82" /><rect x="33" y="31" width="1.05" height="1.05" fill="#c48468" /><rect x="34" y="31" width="1.05" height="1.05" fill="#6b3a3a" /><rect x="28" y="32" width="1.05" height="1.05" fill="#6b3a3a" /><rect x="29" y="32" width="1.05" height="1.05" fill="#c48468" /><rect x="30" y="32" width="1.05" height="1.05" fill="#e0aa82" /><rect x="31" y="32" width="1.05" height="1.05" fill="#e0aa82" /><rect x="32" y="32" width="1.05" height="1.05" fill="#e0aa82" /><rect x="33" y="32" width="1.05" height="1.05" fill="#c48468" /><rect x="34" y="32" width="1.05" height="1.05" fill="#6b3a3a" /><rect x="28" y="33" width="1.05" height="1.05" fill="#6b3a3a" /><rect x="29" y="33" width="1.05" height="1.05" fill="#6b3a3a" /><rect x="30" y="33" width="1.05" height="1.05" fill="#5a3040" /><rect x="31" y="33" width="1.05" height="1.05" fill="#5a3040" /><rect x="32" y="33" width="1.05" height="1.05" fill="#5a3040" /><rect x="33" y="33" width="1.05" height="1.05" fill="#6b3a3a" /><rect x="34" y="33" width="1.05" height="1.05" fill="#6b3a3a" /><rect x="28" y="34" width="1.05" height="1.05" fill="#6b3a3a" /><rect x="29" y="34" width="1.05" height="1.05" fill="#5a3040" /><rect x="30" y="34" width="1.05" height="1.05" fill="#7a4858" /><rect x="31" y="34" width="1.05" height="1.05" fill="#7a4858" /><rect x="32" y="34" width="1.05" height="1.05" fill="#7a4858" /><rect x="33" y="34" width="1.05" height="1.05" fill="#5a3040" /><rect x="34" y="34" width="1.05" height="1.05" fill="#6b3a3a" /><rect x="28" y="35" width="1.05" height="1.05" fill="#6b3a3a" /><rect x="29" y="35" width="1.05" height="1.05" fill="#6b3a3a" /><rect x="30" y="35" width="1.05" height="1.05" fill="#5a3040" /><rect x="31" y="35" width="1.05" height="1.05" fill="#7a4858" /><rect x="32" y="35" width="1.05" height="1.05" fill="#7a4858" /><rect x="33" y="35" width="1.05" height="1.05" fill="#6b3a3a" /><rect x="34" y="35" width="1.05" height="1.05" fill="#6b3a3a" /></svg>