<svg xmlns="http://www.w3.org/2000/svg" viewBox="0 0 64 64" width="64" height="64" shape-rendering="crispEdges"><rect x="29" y="10" width="1.05" height="1.05" fill="#6b3a3a" /><rect x="30" y="10" width="1.05" height="1.05" fill="#6b3a3a" /><rect x="31" y="10" width="1.05" height="1.05" fill="#6b3a3a" /><rect x="32" y="10" width="1.05" height="1.05" fill="#6b3a3a" /><rect x="33" y="10" width="1.05" height="1.05" fill="#6b3a3a" /><rect x="28" y="11" width="1.05" height="1.05" fill="#6b3a3a" /><rect x="29" y="11" width="1.05" height="1.05" fill="#f0c8a0" /><rect x="30" y="11" width="1.05" height="1.05" fill="#f0c8a0" /><rect x="31" y="11" width="1.05" height="1.05" fill="#f0c8a0" /><rect x="32" y="11" width="1.05" height="1.05" fill="#f0c8a0" /><rect x="33" y="11" width="1.05" height="1.05" fill="#e0aa82" /><rect x="34" y="11" width="1.05" height="1.05" fill="#6b3a3a" /><rect x="27" y="12" width="1.05" height="1.05" fill="#6b3a3a" /><rect x="28" y="12" width="1.05" height="1.05" fill="#f0c8a0" /><rect x="29" y="12" width="1.05" height="1.05" fill="#f0c8a0" /><rect x="30" y="12" width="1.05" height="1.05" fill="#f5d8b8" /><rect x="31" y="12" width="1.05" height="1.05" fill="#f5d8b8" /><rect x="32" y="12" width="1.05" height="1.05" fill="#e0aa82" /><rect x="33" y="12" width="1.05" height="1.05" fill="#e0aa82" /><rect x="34" y="12" width="1.05" height="1.05" fill="#e0aa82" /><rect x="35" y="12" width="1.05" height="1.05" fill="#6b3a3a" /><rect x="27" y="13" width="1.05" height="1.05" fill="#6b3a3a" /><rect x="28" y="13" width="1.05" height="1.05" fill="#f0c8a0" /><rect x="29" y="13" width="1.05" height="1.05" fill="#e0aa82" /><rect x="30" y="13" width="1.05" height="1.05" fill="#e0aa82" /><rect x="31" y="13" width="1.05" height="1.05" fill="#f5d8b8" /><rect x="32" y="13" width="1.05" height="1.05" fill="#e0aa82" /><rect x="33" y="13" width="1.05" height="1.05" fill="#e0aa82" /><rect x="34" y="13" width="1.05" height="1.05" fill="#e0aa82" /><rect x="35" y="13" width="1.05" height="1.05" fill="#6b3a3a" /><rect x="27" y="14" width="1.05" height="1.05" fill="#6b3a3a" /><rect x="28" y="14" width="1.05" height="1.05" fill="#e0aa82" /><rect x="29" y="14" width="1.05" height="1.05" fill="#c48468" /><rect x="30" y="14" width="1.05" height="1.05" fill="#6b3a3a" /><rect x="31" y="14" width="1.05" height="1.05" fill="#c48468" /><rect x="32" y="14" width="1.05" height="1.05" fill="#e0aa82" /><rect x="33" y="14" width="1.05" height="1.05" fill="#e0aa82" /><rect x="34" y="14" width="1.05" height="1.05" fill="#c48468" /><rect x="35" y="14" width="1.05" height="1.05" fill="#6b3a3a" /><rect x="28" y="15" width="1.05" height="1.05" fill="#6b3a3a" /><rect x="29" y="15" width="1.05" height="1.05" fill="#e0aa82" /><rect x="30" y="15" width="1.05" height="1.05" fill="#e0aa82" /><rect x="31" y="15" width="1.05" height="1.05" fill="#e0aa82" /><rect x="32" y="15" width="1.05" height="1.05" fill="#e0aa82" /><rect x="33" y="15" width="1.05" height="1.05" fill="#c48468" /><rect x="34" y="15" width="1.05" height="1.05" fill="#6b3a3a" /><rect x="29" y="16" width="1.05" height="1.05" fill="#6b3a3a" /><rect x="30" y="16" width="1.05" height="1.05" fill="#e0aa82" /><rect x="31" y="16" width="1.05" height="1.05" fill="#e0aa82" /><rect x="32" y="16" width="1.05" height="1.05" fill="#c48468" /><rect x="33" y="16" width="1.05" height="1.05" fill="#6b3a3a" /><rect x="30" y="17" width="1.05" height="1.05" fill="#6b3a3a" /><rect x="31" y="17" width="1.05" height="1.05" fill="#c48468" /><rect x="32" y="17" width="1.05" height="1.05" fill="#6b3a3a" /></svg>