<svg xmlns="http://www.w3.org/2000/svg" viewBox="0 0 24 48" width="24" height="48" shape-rendering="crispEdges"><rect x="8" y="0" width="1.05" height="1.05" fill="#1a1a12" /><rect x="9" y="0" width="1.05" height="1.05" fill="#1a1a12" /><rect x="10" y="0" width="1.05" height="1.05" fill="#1a1a12" /><rect x="11" y="0" width="1.05" height="1.05" fill="#1a1a12" /><rect x="12" y="0" width="1.05" height="1.05" fill="#1a1a12" /><rect x="7" y="1" width="1.05" height="1.05" fill="#1a1a12" /><rect x="8" y="1" width="1.05" height="1.05" fill="#8a8a5a" /><rect x="9" y="1" width="1.05" height="1.05" fill="#b0b080" /><rect x="10" y="1" width="1.05" height="1.05" fill="#b0b080" /><rect x="11" y="1" width="1.05" height="1.05" fill="#8a8a5a" /><rect x="12" y="1" width="1.05" height="1.05" fill="#1a1a12" /><rect x="6" y="2" width="1.05" height="1.05" fill="#1a1a12" /><rect x="7" y="2" width="1.05" height="1.05" fill="#8a8a5a" /><rect x="8" y="2" width="1.05" height="1.05" fill="#b0b080" /><rect x="9" y="2" width="1.05" height="1.05" fill="#b0b080" /><rect x="10" y="2" width="1.05" height="1.05" fill="#b0b080" /><rect x="11" y="2" width="1.05" height="1.05" fill="#c8c8a0" /><rect x="12" y="2" width="1.05" height="1.05" fill="#8a8a5a" /><rect x="13" y="2" width="1.05" height="1.05" fill="#1a1a12" /><rect x="6" y="3" width="1.05" height="1.05" fill="#1a1a12" /><rect x="7" y="3" width="1.05" height="1.05" fill="#b0b080" /><rect x="8" y="3" width="1.05" height="1.05" fill="#b0b080" /><rect x="9" y="3" width="1.05" height="1.05" fill="#b0b080" /><rect x="10" y="3" width="1.05" height="1.05" fill="#c8c8a0" /><rect x="11" y="3" width="1.05" height="1.05" fill="#c8c8a0" /><rect x="12" y="3" width="1.05" height="1.05" fill="#8a8a5a" /><rect x="13" y="3" width="1.05" height="1.05" fill="#1a1a12" /><rect x="6" y="4" width="1.05" height="1.05" fill="#1a1a12" /><rect x="7" y="4" width="1.05" height="1.05" fill="#1a1a12" /><rect x="8" y="4" width="1.05" height="1.05" fill="#1a1a12" /><rect x="9" y="4" width="1.05" height="1.05" fill="#b0b080" /><rect x="10" y="4" width="1.05" height="1.05" fill="#1a1a12" /><rect x="11" y="4" width="1.05" height="1.05" fill="#1a1a12" /><rect x="12" y="4" width="1.05" height="1.05" fill="#8a8a5a" /><rect x="13" y="4" width="1.05" height="1.05" fill="#1a1a12" /><rect x="7" y="5" width="1.05" height="1.05" fill="#1a1a12" /><rect x="8" y="5" width="1.05" height="1.05" fill="#8a8a5a" /><rect x="9" y="5" width="1.05" height="1.05" fill="#5a5a3a" /><rect x="10" y="5" width="1.05" height="1.05" fill="#5a5a3a" /><rect x="11" y="5" width="1.05" height="1.05" fill="#8a8a5a" /><rect x="12" y="5" width="1.05" height="1.05" fill="#1a1a12" /><rect x="8" y="6" width="1.05" height="1.05" fill="#1a1a12" /><rect x="9" y="6" width="1.05" height="1.05" fill="#8a8a5a" /><rect x="10" y="6" width="1.05" height="1.05" fill="#8a8a5a" /><rect x="11" y="6" width="1.05" height="1.05" fill="#1a1a12" /><rect x="9" y="7" width="1.05" height="1.05" fill="#1a1a12" /><rect x="10" y="7" width="1.05" height="1.05" fill="#1a1a12" /><rect x="8" y="8" width="1.05" height="1.05" fill="#1a1a12" /><rect x="9" y="8" width="1.05" height="1.05" fill="#5a5a3a" /><rect x="10" y="8" width="1.05" height="1.05" fill="#5a5a3a" /><rect x="11" y="8" width="1.05" height="1.05" fill="#1a1a12" /><rect x="7" y="9" width="1.05" height="1.05" fill="#1a1a12" /><rect x="8" y="9" width="1.05" height="1.05" fill="#8a8a5a" /><rect x="9" y="9" width="1.05" height="1.05" fill="#8a8a5a" /><rect x="10" y="9" width="1.05" height="1.05" fill="#5a5a3a" /><rect x="11" y="9" width="1.05" height="1.05" fill="#1a1a12" /><rect x="5" y="10" width="1.05" height="1.05" fill="#1a1a12" /><rect x="6" y="10" width="1.05" height="1.05" fill="#1a1a12" /><rect x="7" y="10" width="1.05" height="1.05" fill="#8a8a5a" /><rect x="8" y="10" width="1.05" height="1.05" fill="#5a5a3a" /><rect x="9" y="10" width="1.05" height="1.05" fill="#5a5a3a" /><rect x="10" y="10" width="1.05" height="1.05" fill="#8a8a5a" /><rect x="11" y="10" width="1.05" height="1.05" fill="#8a8a5a" /><rect x="12" y="10" width="1.05" height="1.05" fill="#5a5a3a" /><rect x="13" y="10" width="1.05" height="1.05" fill="#1a1a12" /><rect x="14" y="10" width="1.05" height="1.05" fill="#1a1a12" /><rect x="4" y="11" width="1.05" height="1.05" fill="#1a1a12" /><rect x="5" y="11" width="1.05" height="1.05" fill="#5a5a3a" /><rect x="6" y="11" width="1.05" height="1.05" fill="#5a5a3a" /><rect x="7" y="11" width="1.05" height="1.05" fill="#5a5a3a" /><rect x="8" y="11" width="1.05" height="1.05" fill="#8a8a5a" /><rect x="9" y="11" width="1.05" height="1.05" fill="#8a8a5a" /><rect x="10" y="11" width="1.05" height="1.05" fill="#8a8a5a" /><rect x="11" y="11" width="1.05" height="1.05" fill="#8a8a5a" /><rect x="12" y="11" width="1.05" height="1.05" fill="#5a5a3a" /><rect x="13" y="11" width="1.05" height="1.05" fill="#5a5a3a" /><rect x="14" y="11" width="1.05" height="1.05" fill="#5a5a3a" /><rect x="15" y="11" width="1.05" height="1.05" fill="#1a1a12" /><rect x="3" y="12" width="1.05" height="1.05" fill="#1a1a12" /><rect x="4" y="12" width="1.05" height="1.05" fill="#5a5a3a" /><rect x="5" y="12" width="1.05" height="1.05" fill="#8a8a5a" /><rect x="6" y="12" width="1.05" height="1.05" fill="#8a8a5a" /><rect x="7" y="12" width="1.05" height="1.05" fill="#8a8a5a" /><rect x="8" y="12" width="1.05" height="1.05" fill="#1a1a12" /><rect x="9" y="12" width="1.05" height="1.05" fill="#1a1a12" /><rect x="10" y="12" width="1.05" height="1.05" fill="#1a1a12" /><rect x="11" y="12" width="1.05" height="1.05" fill="#8a8a5a" /><rect x="12" y="12" width="1.05" height="1.05" fill="#8a8a5a" /><rect x="13" y="12" width="1.05" height="1.05" fill="#8a8a5a" /><rect x="14" y="12" width="1.05" height="1.05" fill="#5a5a3a" /><rect x="15" y="12" width="1.05" height="1.05" fill="#1a1a12" /><rect x="3" y="13" width="1.05" height="1.05" fill="#1a1a12" /><rect x="4" y="13" width="1.05" height="1.05" fill="#5a5a3a" /><rect x="5" y="13" width="1.05" height="1.05" fill="#8a8a5a" /><rect x="6" y="13" width="1.05" height="1.05" fill="#8a8a5a" /><rect x="7" y="13" width="1.05" height="1.05" fill="#1a1a12" /><rect x="12" y="13" width="1.05" height="1.05" fill="#8a8a5a" /><rect x="13" y="13" width="1.05" height="1.05" fill="#8a8a5a" /><rect x="14" y="13" width="1.05" height="1.05" fill="#5a5a3a" /><rect x="16" y="13" width="1.05" height="1.05" fill="#1a1a12" /><rect x="4" y="14" width="1.05" height="1.05" fill="#1a1a12" /><rect x="5" y="14" width="1.05" height="1.05" fill="#5a5a3a" /><rect x="6" y="14" width="1.05" height="1.05" fill="#8a8a5a" /><rect x="7" y="14" width="1.05" height="1.05" fill="#8a8a5a" /><rect x="8" y="14" width="1.05" height="1.05" fill="#1a1a12" /><rect x="9" y="14" width="1.05" height="1.05" fill="#1a1a12" /><rect x="10" y="14" width="1.05" height="1.05" fill="#1a1a12" /><rect x="11" y="14" width="1.05" height="1.05" fill="#8a8a5a" /><rect x="12" y="14" width="1.05" height="1.05" fill="#8a8a5a" /><rect x="13" y="14" width="1.05" height="1.05" fill="#5a5a3a" /><rect x="14" y="14" width="1.05" height="1.05" fill="#1a1a12" /><rect x="4" y="15" width="1.05" height="1.05" fill="#1a1a12" /><rect x="5" y="15" width="1.05" height="1.05" fill="#5a5a3a" /><rect x="6" y="15" width="1.05" height="1.05" fill="#8a8a5a" /><rect x="7" y="15" width="1.05" height="1.05" fill="#8a8a5a" /><rect x="8" y="15" width="1.05" height="1.05" fill="#1a1a12" /><rect x="11" y="15" width="1.05" height="1.05" fill="#8a8a5a" /><rect x="12" y="15" width="1.05" height="1.05" fill="#5a5a3a" /><rect x="13" y="15" width="1.05" height="1.05" fill="#1a1a12" /><rect x="5" y="16" width="1.05" height="1.05" fill="#1a1a12" /><rect x="6" y="16" width="1.05" height="1.05" fill="#5a5a3a" /><rect x="7" y="16" width="1.05" height="1.05" fill="#8a8a5a" /><rect x="8" y="16" width="1.05" height="1.05" fill="#1a1a12" /><rect x="10" y="16" width="1.05" height="1.05" fill="#1a1a12" /><rect x="11" y="16" width="1.05" height="1.05" fill="#8a8a5a" /><rect x="12" y="16" width="1.05" height="1.05" fill="#5a5a3a" /><rect x="13" y="16" width="1.05" height="1.05" fill="#1a1a12" /><rect x="5" y="17" width="1.05" height="1.05" fill="#1a1a12" /><rect x="6" y="17" width="1.05" height="1.05" fill="#5a5a3a" /><rect x="7" y="17" width="1.05" height="1.05" fill="#8a8a5a" /><rect x="8" y="17" width="1.05" height="1.05" fill="#1a1a12" /><rect x="9" y="17" width="1.05" height="1.05" fill="#1a1a12" /><rect x="10" y="17" width="1.05" height="1.05" fill="#8a8a5a" /><rect x="11" y="17" width="1.05" height="1.05" fill="#5a5a3a" /><rect x="12" y="17" width="1.05" height="1.05" fill="#1a1a12" /><rect x="6" y="18" width="1.05" height="1.05" fill="#1a1a12" /><rect x="7" y="18" width="1.05" height="1.05" fill="#5a5a3a" /><rect x="8" y="18" width="1.05" height="1.05" fill="#8a8a5a" /><rect x="9" y="18" width="1.05" height="1.05" fill="#8a8a5a" /><rect x="10" y="18" width="1.05" height="1.05" fill="#5a5a3a" /><rect x="11" y="18" width="1.05" height="1.05" fill="#1a1a12" /><rect x="6" y="19" width="1.05" height="1.05" fill="#1a1a12" /><rect x="7" y="19" width="1.05" height="1.05" fill="#5a5a3a" /><rect x="8" y="19" width="1.05" height="1.05" fill="#8a8a5a" /><rect x="9" y="19" width="1.05" height="1.05" fill="#8a8a5a" /><rect x="10" y="19" width="1.05" height="1.05" fill="#5a5a3a" /><rect x="11" y="19" width="1.05" height="1.05" fill="#1a1a12" /><rect x="5" y="20" width="1.05" height="1.05" fill="#1a1a12" /><rect x="6" y="20" width="1.05" height="1.05" fill="#5a5a3a" /><rect x="7" y="20" width="1.05" height="1.05" fill="#8a8a5a" /><rect x="8" y="20" width="1.05" height="1.05" fill="#8a8a5a" /><rect x="9" y="20" width="1.05" height="1.05" fill="#8a8a5a" /><rect x="10" y="20" width="1.05" height="1.05" fill="#8a8a5a" /><rect x="11" y="20" width="1.05" height="1.05" fill="#5a5a3a" /><rect x="12" y="20" width="1.05" height="1.05" fill="#1a1a12" /><rect x="5" y="21" width="1.05" height="1.05" fill="#1a1a12" /><rect x="6" y="21" width="1.05" height="1.05" fill="#5a5a3a" /><rect x="7" y="21" width="1.05" height="1.05" fill="#8a8a5a" /><rect x="8" y="21" width="1.05" height="1.05" fill="#1a1a12" /><rect x="9" y="21" width="1.05" height="1.05" fill="#1a1a12" /><rect x="10" y="21" width="1.05" height="1.05" fill="#8a8a5a" /><rect x="11" y="21" width="1.05" height="1.05" fill="#5a5a3a" /><rect x="12" y="21" width="1.05" height="1.05" fill="#1a1a12" /><rect x="6" y="22" width="1.05" height="1.05" fill="#1a1a12" /><rect x="7" y="22" width="1.05" height="1.05" fill="#1a1a12" /><rect x="11" y="22" width="1.05" height="1.05" fill="#1a1a12" /><rect x="12" y="22" width="1.05" height="1.05" fill="#1a1a12" /><rect x="3" y="23" width="1.05" height="1.05" fill="#1a1a12" /><rect x="4" y="23" width="1.05" height="1.05" fill="#5a5a3a" /><rect x="5" y="23" width="1.05" height="1.05" fill="#3a3a28" /><rect x="10" y="23" width="1.05" height="1.05" fill="#3a3a28" /><rect x="11" y="23" width="1.05" height="1.05" fill="#8a8a5a" /><rect x="12" y="23" width="1.05" height="1.05" fill="#5a5a3a" /><rect x="13" y="23" width="1.05" height="1.05" fill="#1a1a12" /><rect x="3" y="24" width="1.05" height="1.05" fill="#1a1a12" /><rect x="4" y="24" width="1.05" height="1.05" fill="#5a5a3a" /><rect x="5" y="24" width="1.05" height="1.05" fill="#3a3a28" /><rect x="9" y="24" width="1.05" height="1.05" fill="#1a1a12" /><rect x="10" y="24" width="1.05" height="1.05" fill="#5a5a3a" /><rect x="11" y="24" width="1.05" height="1.05" fill="#8a8a5a" /><rect x="12" y="24" width="1.05" height="1.05" fill="#5a5a3a" /><rect x="13" y="24" width="1.05" height="1.05" fill="#1a1a12" /><rect x="4" y="25" width="1.05" height="1.05" fill="#1a1a12" /><rect x="5" y="25" width="1.05" height="1.05" fill="#3a3a28" /><rect x="9" y="25" width="1.05" height="1.05" fill="#1a1a12" /><rect x="10" y="25" width="1.05" height="1.05" fill="#8a8a5a" /><rect x="11" y="25" width="1.05" height="1.05" fill="#5a5a3a" /><rect x="12" y="25" width="1.05" height="1.05" fill="#1a1a12" /><rect x="4" y="26" width="1.05" height="1.05" fill="#1a1a12" /><rect x="5" y="26" width="1.05" height="1.05" fill="#3a3a28" /><rect x="10" y="26" width="1.05" height="1.05" fill="#1a1a12" /><rect x="11" y="26" width="1.05" height="1.05" fill="#5a5a3a" /><rect x="12" y="26" width="1.05" height="1.05" fill="#1a1a12" /><rect x="4" y="27" width="1.05" height="1.05" fill="#1a1a12" /><rect x="5" y="27" width="1.05" height="1.05" fill="#3a3a28" /><rect x="10" y="27" width="1.05" height="1.05" fill="#1a1a12" /><rect x="11" y="27" width="1.05" height="1.05" fill="#5a5a3a" /><rect x="12" y="27" width="1.05" height="1.05" fill="#1a1a12" /><rect x="5" y="28" width="1.05" height="1.05" fill="#1a1a12" /><rect x="11" y="28" width="1.05" height="1.05" fill="#1a1a12" /><rect x="12" y="28" width="1.05" height="1.05" fill="#1a1a12" /><rect x="5" y="29" width="1.05" height="1.05" fill="#1a1a12" /><rect x="12" y="29" width="1.05" height="1.05" fill="#1a1a12" /><rect x="6" y="30" width="1.05" height="1.05" fill="#1a1a12" /><rect x="7" y="30" width="1.05" height="1.05" fill="#5a5a3a" /><rect x="8" y="30" width="1.05" height="1.05" fill="#5a5a3a" /><rect x="9" y="30" width="1.05" height="1.05" fill="#1a1a12" /><rect x="5" y="31" width="1.05" height="1.05" fill="#1a1a12" /><rect x="6" y="31" width="1.05" height="1.05" fill="#5a5a3a" /><rect x="7" y="31" width="1.05" height="1.05" fill="#8a8a5a" /><rect x="8" y="31" width="1.05" height="1.05" fill="#5a5a3a" /><rect x="9" y="31" width="1.05" height="1.05" fill="#1a1a12" /><rect x="5" y="32" width="1.05" height="1.05" fill="#1a1a12" /><rect x="6" y="32" width="1.05" height="1.05" fill="#5a5a3a" /><rect x="7" y="32" width="1.05" height="1.05" fill="#8a8a5a" /><rect x="8" y="32" width="1.05" height="1.05" fill="#5a5a3a" /><rect x="9" y="32" width="1.05" height="1.05" fill="#1a1a12" /><rect x="6" y="33" width="1.05" height="1.05" fill="#1a1a12" /><rect x="7" y="33" width="1.05" height="1.05" fill="#5a5a3a" /><rect x="8" y="33" width="1.05" height="1.05" fill="#8a8a5a" /><rect x="9" y="33" width="1.05" height="1.05" fill="#1a1a12" /><rect x="6" y="34" width="1.05" height="1.05" fill="#1a1a12" /><rect x="7" y="34" width="1.05" height="1.05" fill="#5a5a3a" /><rect x="8" y="34" width="1.05" height="1.05" fill="#8a8a5a" /><rect x="9" y="34" width="1.05" height="1.05" fill="#1a1a12" /><rect x="7" y="35" width="1.05" height="1.05" fill="#1a1a12" /><rect x="8" y="35" width="1.05" height="1.05" fill="#5a5a3a" /><rect x="9" y="35" width="1.05" height="1.05" fill="#1a1a12" /><rect x="7" y="36" width="1.05" height="1.05" fill="#1a1a12" /><rect x="8" y="36" width="1.05" height="1.05" fill="#8a8a5a" /><rect x="9" y="36" width="1.05" height="1.05" fill="#5a5a3a" /><rect x="10" y="36" width="1.05" height="1.05" fill="#1a1a12" /><rect x="6" y="37" width="1.05" height="1.05" fill="#1a1a12" /><rect x="7" y="37" width="1.05" height="1.05" fill="#8a8a5a" /><rect x="8" y="37" width="1.05" height="1.05" fill="#8a8a5a" /><rect x="9" y="37" width="1.05" height="1.05" fill="#5a5a3a" /><rect x="10" y="37" width="1.05" height="1.05" fill="#1a1a12" /><rect x="10" y="38" width="1.05" height="1.05" fill="#1a1a12" /><rect x="11" y="38" width="1.05" height="1.05" fill="#5a5a3a" /><rect x="12" y="38" width="1.05" height="1.05" fill="#5a5a3a" /><rect x="13" y="38" width="1.05" height="1.05" fill="#1a1a12" /><rect x="9" y="39" width="1.05" height="1.05" fill="#1a1a12" /><rect x="10" y="39" width="1.05" height="1.05" fill="#5a5a3a" /><rect x="11" y="39" width="1.05" height="1.05" fill="#8a8a5a" /><rect x="12" y="39" width="1.05" height="1.05" fill="#5a5a3a" /><rect x="13" y="39" width="1.05" height="1.05" fill="#1a1a12" /><rect x="9" y="40" width="1.05" height="1.05" fill="#1a1a12" /><rect x="10" y="40" width="1.05" height="1.05" fill="#5a5a3a" /><rect x="11" y="40" width="1.05" height="1.05" fill="#8a8a5a" /><rect x="12" y="40" width="1.05" height="1.05" fill="#5a5a3a" /><rect x="13" y="40" width="1.05" height="1.05" fill="#1a1a12" /><rect x="10" y="41" width="1.05" height="1.05" fill="#1a1a12" /><rect x="11" y="41" width="1.05" height="1.05" fill="#5a5a3a" /><rect x="12" y="41" width="1.05" height="1.05" fill="#8a8a5a" /><rect x="13" y="41" width="1.05" height="1.05" fill="#1a1a12" /><rect x="10" y="42" width="1.05" height="1.05" fill="#1a1a12" /><rect x="11" y="42" width="1.05" height="1.05" fill="#5a5a3a" /><rect x="12" y="42" width="1.05" height="1.05" fill="#8a8a5a" /><rect x="13" y="42" width="1.05" height="1.05" fill="#1a1a12" /><rect x="11" y="43" width="1.05" height="1.05" fill="#1a1a12" /><rect x="12" y="43" width="1.05" height="1.05" fill="#5a5a3a" /><rect x="13" y="43" width="1.05" height="1.05" fill="#1a1a12" /><rect x="10" y="44" width="1.05" height="1.05" fill="#1a1a12" /><rect x="11" y="44" width="1.05" height="1.05" fill="#8a8a5a" /><rect x="12" y="44" width="1.05" height="1.05" fill="#5a5a3a" /><rect x="13" y="44" width="1.05" height="1.05" fill="#1a1a12" /><rect x="9" y="45" width="1.05" height="1.05" fill="#1a1a12" /><rect x="10" y="45" width="1.05" height="1.05" fill="#8a8a5a" /><rect x="11" y="45" width="1.05" height="1.05" fill="#b0b080" /><rect x="12" y="45" width="1.05" height="1.05" fill="#5a5a3a" /><rect x="13" y="45" width="1.05" height="1.05" fill="#1a1a12" /><rect x="6" y="46" width="1.05" height="1.05" fill="#1a1a12" /><rect x="7" y="46" width="1.05" height="1.05" fill="#1a1a12" /><rect x="8" y="46" width="1.05" height="1.05" fill="#1a1a12" /><rect x="9" y="46" width="1.05" height="1.05" fill="#1a1a12" /><rect x="10" y="46" width="1.05" height="1.05" fill="#1a1a12" /><rect x="11" y="46" width="1.05" height="1.05" fill="#1a1a12" /><rect x="9" y="47" width="1.05" height="1.05" fill="#1a1a12" /><rect x="10" y="47" width="1.05" height="1.05" fill="#1a1a12" /><rect x="11" y="47" width="1.05" height="1.05" fill="#1a1a12" /><rect x="12" y="47" width="1.05" height="1.05" fill="#1a1a12" /><rect x="13" y="47" width="1.05" height="1.05" fill="#1a1a12" /><rect x="14" y="47" width="1.05" height="1.05" fill="#1a1a12" /><rect x="2" y="48" width="1.05" height="1.05" fill="#2a3a1a" /><rect x="3" y="48" width="1.05" height="1.05" fill="#2a3a1a" /><rect x="4" y="48" width="1.05" height="1.05" fill="#4a5a2a" /><rect x="5" y="48" width="1.05" height="1.05" fill="#4a5a2a" /><rect x="9" y="48" width="1.05" height="1.05" fill="#6a6a4a" /><rect x="10" y="48" width="1.05" height="1.05" fill="#6a6a4a" /><rect x="13" y="48" width="1.05" height="1.05" fill="#2a3a1a" /><rect x="14" y="48" width="1.05" height="1.05" fill="#4a5a2a" /><rect x="15" y="48" width="1.05" height="1.05" fill="#4a5a2a" /><rect x="2" y="49" width="1.05" height="1.05" fill="#2a3a1a" /><rect x="3" y="49" width="1.05" height="1.05" fill="#4a5a2a" /><rect x="4" y="49" width="1.05" height="1.05" fill="#4a5a2a" /><rect x="5" y="49" width="1.05" height="1.05" fill="#4a5a2a" /><rect x="6" y="49" width="1.05" height="1.05" fill="#2a3a1a" /><rect x="8" y="49" width="1.05" height="1.05" fill="#1a1a12" /><rect x="9" y="49" width="1.05" height="1.05" fill="#6a6a4a" /><rect x="10" y="49" width="1.05" height="1.05" fill="#6a6a4a" /><rect x="11" y="49" width="1.05" height="1.05" fill="#1a1a12" /><rect x="13" y="49" width="1.05" height="1.05" fill="#4a5a2a" /><rect x="14" y="49" width="1.05" height="1.05" fill="#4a5a2a" /><rect x="15" y="49" width="1.05" height="1.05" fill="#4a5a2a" /><rect x="16" y="49" width="1.05" height="1.05" fill="#2a3a1a" /></svg>